<?xml version="1.0" standalone="no"?><!DOCTYPE svg PUBLIC "-//W3C//DTD SVG 1.1//EN" "http://www.w3.org/Graphics/SVG/1.1/DTD/svg11.dtd"><svg t="1594174951730" class="icon" viewBox="0 0 1024 1024" version="1.1" xmlns="http://www.w3.org/2000/svg" p-id="33338" width="128" height="128" xmlns:xlink="http://www.w3.org/1999/xlink"><defs><style type="text/css"></style></defs><path d="M945.219742 866.447675V118.124308a39.352241 39.352241 0 0 0-39.346098-39.352242H157.550277C157.550277 35.256249 192.806526 0 236.322343 0h708.897399C988.741703 0 1023.997952 35.256249 1023.997952 78.772066v708.897399c0 43.521961-35.256249 78.77821-78.77821 78.77821z m-78.772067-630.125332v708.897399c0 43.521961-35.256249 78.77821-78.77821 78.77821H78.772066C35.268537 1023.997952 0 988.729415 0 945.219742V236.322343c0-43.515817 35.256249-78.772066 78.772066-78.772066h708.897399c43.521961 0 78.77821 35.256249 78.77821 78.772066z m-157.550277 157.548229H157.550277c-21.735381 0-39.352241 17.616861-39.352241 39.352242 0 21.729237 17.616861 39.352241 39.352241 39.352241h551.349169c21.735381 0 39.352241-17.623005 39.352241-39.352241-0.002048-21.733333-17.618909-39.352241-39.354289-39.352242z m0 236.256808H157.550277c-21.735381 0-39.352241 17.616861-39.352241 39.346097 0 21.735381 17.616861 39.352241 39.352241 39.352241h551.349169c21.735381 0 39.352241-17.616861 39.352241-39.352241-0.002048-21.729237-17.618909-39.346097-39.354289-39.346097z m0 0" p-id="33339" fill="#2c2c2c"></path></svg>