<?xml version="1.0" standalone="no"?><!DOCTYPE svg PUBLIC "-//W3C//DTD SVG 1.1//EN" "http://www.w3.org/Graphics/SVG/1.1/DTD/svg11.dtd"><svg t="1594260739998" class="icon" viewBox="0 0 1024 1024" version="1.1" xmlns="http://www.w3.org/2000/svg" p-id="3872" width="128" height="128" xmlns:xlink="http://www.w3.org/1999/xlink"><defs><style type="text/css"></style></defs><path d="M975.401081 791.147005v-0.049869l-0.001216 0.025543 0.001216 0.024326zM939.911561 756.173201H833.391916v-110.793762c-0.226234-19.398943-16.030978-35.001779-35.439651-34.973804-19.420836-0.059599-35.258421 15.552968-35.484655 34.973804v110.793762h-118.366514c-19.403808-0.030408-35.208552 15.572429-35.439651 34.973804 0 19.15933 15.973811 34.923935 35.439651 34.923935h118.366514v110.791329c0 19.214064 15.964081 34.973804 35.484655 34.973805 19.408673 0.030408 35.213417-15.572429 35.439651-34.973805v-110.74146h106.519645c19.431783 0.054734 35.280315-15.569996 35.488304-34.99813-0.242046-19.40989-16.075981-35.006645-35.488304-34.949478z" p-id="3873" fill="#2c2c2c"></path><path d="M974.806305 408.479778V258.069553c0-43.256882-33.999539-77.326967-77.323318-77.326967H537.257913c-30.867539 0-30.890648-34.594315-30.890649-51.591044v-1.522821c0-41.735277-33.997107-77.322101-77.32575-77.322101H124.775256c-43.259314 0-77.256421 34.062787-77.256421 77.322101v767.348666c0 43.256882 33.997107 77.320885 77.256421 77.320885h281.511513c2.317072 0.465847 4.435886 1.393892 6.883104 1.393892h66.144204c18.264125 0 33.069061-19.677478 33.069061-37.940386 0-18.26899-14.804937-40.373008-33.069061-40.373009h-66.144204c-4.606169 0.040138-9.158821 1.031432-13.362392 2.913065h-262.869116c-9.260991 0-15.478773-6.216565-15.478773-15.477557V139.793047c0-9.259775 6.217781-15.478773 15.478773-15.478773H416.878405c9.259775 0 15.477556 6.152101 15.477556 15.478773v-10.640288c0 50.995052 37.545085 125.593833 104.903168 125.603563h346.472247c9.259775 0 15.477556 6.216565 15.477556 15.477557v130.511378a34.273209 34.273209 0 0 0-2.113948 10.713266v66.149069c0 18.264125 15.540805 34.393624 41.584454 33.069062 24.236211-1.232123 36.721643-14.806153 36.721643-33.069062v-66.149069c0-1.056974-0.530312-1.983803-0.594776-2.978745z" p-id="3874" fill="#2c2c2c"></path></svg>