<?xml version="1.0" standalone="no"?><!DOCTYPE svg PUBLIC "-//W3C//DTD SVG 1.1//EN" "http://www.w3.org/Graphics/SVG/1.1/DTD/svg11.dtd"><svg t="1594116760931" class="icon" viewBox="0 0 1024 1024" version="1.1" xmlns="http://www.w3.org/2000/svg" p-id="21601" width="128" height="128" xmlns:xlink="http://www.w3.org/1999/xlink"><defs><style type="text/css"></style></defs><path d="M903.78 242.87l-49.39 49.4A409.74 409.74 0 0 0 509 103.25a410 410 0 1 0 380.77 562.29 43 43 0 1 0-79.84-32 324.09 324.09 0 1 1-20.86-283.36 42.39 42.39 0 0 0 3 4.41l-72.16 72.15c-10.41 10.42-3 28.22 11.69 28.22h183.71A16.69 16.69 0 0 0 932 438.31V254.56c0-14.72-17.8-22.1-28.22-11.69z" p-id="21602" fill="#2c2c2c"></path></svg>