<svg height="128" width="128" viewBox="0 0 1024 1024" xmlns="http://www.w3.org/2000/svg" xmlns:xlink="http://www.w3.org/1999/xlink"><linearGradient id="a" gradientUnits="userSpaceOnUse" x1="69" x2="69" y1="0" y2="728"><stop offset="0" stop-color="#2af598"/><stop offset="1" stop-color="#009efd"/></linearGradient><path d="M921.49333333 339.41333333c5.54666667 5.65333333 8.64 13.12 8.64 21.01333334v535.36c0 49.17333333-40 89.17333333-89.17333333 89.17333333H186.66666667c-49.17333333 0-89.17333333-40-89.17333334-89.17333333V122.56c0-49.17333333 40-89.17333333 89.17333334-89.17333333h416.32c7.89333333 0 15.46666667 3.09333333 21.01333333 8.64l297.49333333 297.38666666zM627.62666667 134.82666667v166.08c0 16.42666667 13.22666667 29.76 29.44 29.76h164.58666666L627.62666667 134.82666667z m242.45333333 760.96v-505.6H661.97333333c-49.17333333 0-89.17333333-40-89.17333333-89.17333334V92.8H186.13333333c-16.42666667 0-29.76 13.33333333-29.76 29.76v773.22666667c0 16.42666667 13.33333333 29.76 29.76 29.76h654.29333334c16.32 0 29.65333333-13.44 29.65333333-29.76z m-281.92-272v2.56c0 60.58666667-51.84 105.81333333-114.13333333 105.81333333H329.70666667c-62.29333333 0-113.28-49.6-113.28-110.18666667v-2.66666666c0-60.58666667 50.98666667-110.18666667 113.28-110.18666667l64.21333333 2.02666667c2.13333333-0.21333333 4.37333333-0.10666667 6.50666667 0.21333333h0.64v0.10666667c4.8 0.85333333 9.38666667 3.09333333 13.01333333 6.72 9.81333333 9.49333333 9.81333333 24.96 0 34.45333333-5.65333333 5.44-13.22666667 7.78666667-20.58666667 6.93333333h-63.78666666c-33.81333333 0-61.33333333 26.77333333-61.33333334 59.62666667v2.66666667c0 32.85333333 27.52 59.62666667 61.33333334 59.62666666h144.42666666c33.81333333 0 68.05333333-23.36 67.94666667-56.32v-2.66666666c0-2.77333333-0.21333333-5.44-0.53333333-8.21333334-0.64-2.34666667-0.74666667-4.90666667-0.53333334-7.25333333 0.42666667-5.12 2.66666667-10.02666667 6.72-13.86666667 9.06666667-8.74666667 23.68-8.74666667 32.64 0 4.37333333 4.26666667 6.61333333 9.81333333 6.72 15.46666667 0.64 5.12 1.06666667 10.13333333 1.06666667 15.14666667z m223.04-1.81333334c0 60.58666667-51.62666667 110.18666667-114.88 110.18666667l-65.28-2.56c-2.56 0.32-5.22666667 0.21333333-7.78666667-0.32h-0.96v-0.10666667c-4.37333333-0.96-8.53333333-3.09333333-11.94666666-6.4-9.81333333-9.49333333-9.81333333-24.74666667 0-34.24 5.86666667-5.65333333 13.97333333-7.89333333 21.54666666-6.82666666h64.42666667c34.24 0 62.18666667-26.77333333 62.18666667-59.73333334v-2.56c0-32.96-27.94666667-59.73333333-62.18666667-59.62666666H549.97333333c-34.34666667 0-65.70666667 17.70666667-65.70666666 50.56v2.56c0 5.12 1.06666667 11.52-1.49333334 18.02666666-1.06666667 2.88-2.77333333 5.65333333-5.22666666 8-8.64 8.32-22.61333333 8.32-31.25333334 0-2.88-2.66666667-4.69333333-5.97333333-5.65333333-9.49333333v-0.10666667c-0.64-2.13333333-0.85333333-4.48-0.74666667-6.61333333-0.21333333-2.66666667-0.32-5.44-0.32-8.21333333v-2.56c0-60.69333333 47.36-102.72 110.50666667-102.72h146.34666667c63.14666667 0 114.88 49.6 114.88 110.18666666v2.56z" p-id="32049" fill="url(#a)"></path></svg>