<?xml version="1.0" standalone="no"?><!DOCTYPE svg PUBLIC "-//W3C//DTD SVG 1.1//EN" "http://www.w3.org/Graphics/SVG/1.1/DTD/svg11.dtd"><svg t="1594479175846" class="icon" viewBox="0 0 1024 1024" version="1.1" xmlns="http://www.w3.org/2000/svg" p-id="12655" width="128" height="128" xmlns:xlink="http://www.w3.org/1999/xlink"><linearGradient id="a" gradientUnits="userSpaceOnUse" x1="69" x2="69" y1="0" y2="788"><stop offset="0" stop-color="#2af598"/><stop offset="1" stop-color="#009efd"/></linearGradient><path d="M862.071654 330.463143L703.797941 161.084969c-9.417708-10.261084-22.771174-16.024159-36.827454-16.024159H238.95676c-11.104461 0-20.241043 8.996019-20.241043 20.241043v271.005079c0 1.827316 0.702814 3.654633 1.967879 4.919698 1.265065 1.265065 3.092382 1.967879 4.919698 1.967879h26.988058c1.827316 0 3.654633-0.702814 4.919698-1.967879 1.265065-1.265065 1.967879-3.092382 1.967879-4.919698V191.446534c0-1.265065 0.562251-2.670693 1.405628-3.51407 0.98394-0.98394 2.249005-1.405628 3.51407-1.405628h378.95731c1.124502 0 2.249005 0.421688 3.092381 1.265065 0.843377 0.843377 1.265065 1.827316 1.265066 3.092382V365.463281c0 11.104461 8.996019 20.241043 20.241043 20.241043h161.928346c1.124502 0 2.249005 0.421688 3.092381 1.265065 0.843377 0.843377 1.265065 1.827316 1.265066 3.092382v448.676458c0 1.265065-0.562251 2.670693-1.405628 3.51407-0.98394 0.98394-2.249005 1.405628-3.51407 1.405628H225.743857c-1.827316 0-3.654633 0.702814-4.919698 1.967879-1.265065 1.265065-1.967879 3.092382-1.967879 4.919698v26.425807c0 1.827316 0.702814 3.654633 1.967879 4.919698 1.265065 1.265065 3.092382 1.967879 4.919698 1.967879h629.580783c11.104461 0 20.241043-8.996019 20.241043-20.241043V364.760467c0-12.650652-4.779135-24.879616-13.494029-34.297324z m0 0" p-id="12656" fill="url(#a)"></path><path d="M460.905422 616.508442c-17.008099 0-27.831434 14.759094-27.831434 39.217021s10.823336 40.060398 27.831434 40.060398 27.831434-15.602471 27.831435-40.060398-10.823336-39.217021-27.831435-39.217021z" p-id="12657" fill="url(#a)"></path><path d="M684.119149 497.311187H158.13315c-2.670693 0-5.060261 0.98394-6.887577 2.811256-1.827316 1.827316-2.811256 4.216884-2.811256 6.887578v282.531228c0 5.341386 4.357447 9.698833 9.698833 9.698833h525.845436c5.341386 0 9.698833-4.357447 9.698833-9.698833v-282.531228c0.140563-5.341386-4.216884-9.698833-9.55827-9.698834zM279.017159 676.528758c0 21.506108-10.823336 39.076458-35.421826 39.076458-16.726973 0-27.831434-6.747014-35.562389-20.10048l15.743034-11.666713c4.49801 8.293205 10.54221 11.947838 17.008099 11.947838 9.979959 0 15.321345-5.341386 15.321345-21.224982v-75.622787h22.911737v77.590666z m67.891832 39.076458c-15.321345 0-30.64269-6.0442-41.747152-16.726973l13.212904-15.743034c8.152642 7.590391 18.975978 12.650652 29.096499 12.650652 11.947838 0 18.273164-5.060261 18.273164-13.07234 0-8.574331-7.02814-11.104461-17.148661-15.461908l-15.321346-6.465889c-11.666712-4.779135-23.192862-14.05628-23.192862-30.783253 0-18.694852 16.445848-33.032258 39.63871-33.032258 13.353466 0 26.566369 5.200824 35.843514 14.759094l-11.666712 14.337405c-7.309266-6.0442-14.899657-9.417708-24.317365-9.417707-10.120522 0-16.58641 4.49801-16.58641 12.088401 0 8.152642 8.152642 11.104461 17.992038 15.040219l15.04022 6.325326c13.915717 5.763075 23.052299 14.477968 23.052299 31.064379 0 18.55429-15.743034 34.437886-42.16884 34.437886z m113.996431 0c-30.361565 0-51.164859-22.771174-51.164859-59.879753 0-37.249142 20.943857-58.895813 51.164859-58.895813s51.164859 21.787234 51.164859 58.895813-20.803294 59.879753-51.164859 59.879753z m167.269732-2.108442h-23.192862L571.950034 652.211393l-11.666712-24.59849h-0.843377c1.124502 12.369526 2.811256 26.706932 2.811256 39.919836v45.964035h-21.646671v-114.418119H564.078518l33.313383 60.863692 11.385587 24.739053h0.702814c-1.265065-11.947838-2.951819-27.12862-2.951819-40.060398v-45.68291h21.646671v114.558682z" p-id="12658" fill="url(#a)"></path></svg>