<?xml version="1.0" standalone="no"?><!DOCTYPE svg PUBLIC "-//W3C//DTD SVG 1.1//EN" "http://www.w3.org/Graphics/SVG/1.1/DTD/svg11.dtd"><svg t="1595565650073" class="icon" viewBox="0 0 1024 1024" version="1.1" xmlns="http://www.w3.org/2000/svg" p-id="17616" xmlns:xlink="http://www.w3.org/1999/xlink" width="256" height="256"><linearGradient id="a" gradientUnits="userSpaceOnUse" x1="69" x2="69" y1="0" y2="328"><stop offset="0" stop-color="#2af598"/><stop offset="1" stop-color="#009efd"/></linearGradient><path d="M256 128v51.84h-49.28c-38.72 0-58.048 20.224-58.048 60.8v171.072c0 49.28-24.064 82.752-72.128 100.288 48.064 18.112 72.128 51.52 72.128 100.288v171.904c0 40 19.328 60.032 58.048 60.032H256V896h-60.672c-36.416 0-64.256-10.688-83.584-32.064-18.816-19.2-28.16-46.336-28.16-81.408V614.784c0-24.128-5.568-42.24-16.704-54.272C54.528 547.328 32.256 540.224 0 539.136v-54.272c32.832-1.664 55.104-8.768 66.88-21.376 11.136-12.032 16.64-30.144 16.64-54.272V242.304c0-35.648 9.408-63.04 28.16-82.24C131.136 138.688 158.976 128 195.392 128H256z m512 0h60.672c36.416 0 64.256 10.688 83.584 32.064 18.816 19.2 28.16 46.592 28.16 82.24v166.912c0 24.128 5.568 42.24 16.704 54.272 11.776 12.608 34.048 19.712 66.88 21.376v54.272c-32.256 1.088-54.528 8.192-66.88 21.376-11.136 12.032-16.64 30.144-16.64 54.272v167.744c0 35.072-9.408 62.208-28.16 81.408-19.392 21.376-47.232 32.064-83.648 32.064H768v-51.84h49.28c38.72 0 58.048-19.968 58.048-59.968V612.288c0-48.768 24.064-82.176 72.128-100.288-48.064-17.536-72.128-51.008-72.128-100.288V240.64c0-40.576-19.328-60.8-58.048-60.8H768V128zM320 448a64 64 0 1 1 0 128 64 64 0 0 1 0-128z m192 0a64 64 0 1 1 0 128 64 64 0 0 1 0-128z m192 0a64 64 0 1 1 0 128 64 64 0 0 1 0-128z" p-id="17617" fill="url(#a)"></path></svg>