<svg height="128" width="128" viewBox="0 0 1024 1024" xmlns="http://www.w3.org/2000/svg" xmlns:xlink="http://www.w3.org/1999/xlink"><linearGradient id="a" gradientUnits="userSpaceOnUse" x1="69" x2="69" y1="0" y2="728"><stop offset="0" stop-color="#2af598"/><stop offset="1" stop-color="#009efd"/></linearGradient><path d="M903.78 242.87l-49.39 49.4A409.74 409.74 0 0 0 509 103.25a410 410 0 1 0 380.77 562.29 43 43 0 1 0-79.84-32 324.09 324.09 0 1 1-20.86-283.36 42.39 42.39 0 0 0 3 4.41l-72.16 72.15c-10.41 10.42-3 28.22 11.69 28.22h183.71A16.69 16.69 0 0 0 932 438.31V254.56c0-14.72-17.8-22.1-28.22-11.69z" p-id="21602" fill="url(#a)"></path></svg>