<svg width="165.625" height="128" viewBox="0 0 1325 1024" xmlns="http://www.w3.org/2000/svg" xmlns:xlink="http://www.w3.org/1999/xlink"><linearGradient id="a" gradientUnits="userSpaceOnUse" x1="69" x2="69" y1="0" y2="828"><stop offset="0" stop-color="#2af598"/><stop offset="1" stop-color="#009efd"/></linearGradient><path d="M738.665412 1024v-307.139765h135.890823a30.659765 30.659765 0 0 0 30.117647-31.201882 31.623529 31.623529 0 0 0-8.011294-20.901647l-210.703059-237.44753a29.515294 29.515294 0 0 0-43.971764-0.421647L422.369882 664.395294a31.744 31.744 0 0 0 1.024 43.971765 29.696 29.696 0 0 0 20.720942 8.553412H587.896471V1024H301.718588v-0.361412C127.096471 1015.326118-7.830588 862.750118 0.361412 682.827294 7.830588 514.409412 138.721882 379.783529 302.019765 372.133647 310.633412 157.936941 486.098824-8.553412 693.970824 0.361412c207.811765 8.854588 369.242353 189.741176 360.628705 403.998117 165.586824 17.468235 285.997176 170.104471 268.950589 340.751059-15.179294 152.274824-135.710118 270.456471-284.009412 278.467765V1024h-300.875294z" p-id="25465" fill="url(#a)"></path></svg>